<svg aria-hidden="true" focusable="false" data-prefix="fab" data-icon="linkedin" class="svg-inline--fa fa-linkedin fa-w-14" xmlns="http://www.w3.org/2000/svg" viewBox="0 0 448 512">
  <path fill="currentColor" d="M100.28 448H7.4V148.9h92.88zm-46.44-338C24.3 110 0 85.7 0 55.6 0 25.6 24.3 1 53.84 1s53.84 24.6 53.84 54.6c0 30.1-24.3 54.4-53.84 54.4zM447.9 448h-92.68V302.4c0-34.7-.7-79.4-48.3-79.4-48.3 0-55.7 37.7-55.7 76.6V448H158.8V148.9h89.04v40.8h1.3c12.4-23.6 42.6-48.3 87.7-48.3 93.9 0 111.3 61.8 111.3 142.3V448z"></path>
</svg>
