<svg aria-hidden="true" focusable="false" data-prefix="fas" data-icon="file-lines" class="svg-inline--fa fa-file-lines fa-w-12" xmlns="http://www.w3.org/2000/svg" viewBox="0 0 384 512">
  <path fill="currentColor" d="M224 136V0H24C10.7 0 0 10.7 0 24v464c0 13.3 10.7 24 24 24h336c13.3 0 24-10.7 24-24V160H248c-13.2 0-24-10.8-24-24zM96 392c0 6.6-5.4 12-12 12H64c-6.6 0-12-5.4-12-12v-8c0-6.6 5.4-12 12-12h20c6.6 0 12 5.4 12 12v8zm0-88c0 6.6-5.4 12-12 12H64c-6.6 0-12-5.4-12-12v-8c0-6.6 5.4-12 12-12h20c6.6 0 12 5.4 12 12v8zm0-88c0 6.6-5.4 12-12 12H64c-6.6 0-12-5.4-12-12v-8c0-6.6 5.4-12 12-12h20c6.6 0 12 5.4 12 12v8zm208 176H160c-8.8 0-16-7.2-16-16v-16c0-8.8 7.2-16 16-16h144c8.8 0 16 7.2 16 16v16c0 8.8-7.2 16-16 16zm0-96H160c-8.8 0-16-7.2-16-16v-16c0-8.8 7.2-16 16-16h144c8.8 0 16 7.2 16 16v16c0 8.8-7.2 16-16 16zM256 0v128h128L256 0z"></path>
</svg>
